Coordinates
version=1
nRows=15
nColumns=34
inDegrees=yes

Units are S.I. units (second, meters, Newtons, ...)
If the header above contains a line with 'inDegrees', this indicates whether rotational values are in degrees (yes) or radians (no).

endheader
time	pelvis_tilt	pelvis_list	pelvis_rotation	pelvis_tx	pelvis_ty	pelvis_tz	hip_flexion_r	hip_adduction_r	hip_rotation_r	knee_angle_r	ankle_angle_r	subtalar_angle_r	mtp_angle_r	hip_flexion_l	hip_adduction_l	hip_rotation_l	knee_angle_l	ankle_angle_l	subtalar_angle_l	mtp_angle_l	lumbar_extension	lumbar_bending	lumbar_rotation	arm_flex_r	arm_add_r	arm_rot_r	elbow_flex_r	pro_sup_r	arm_flex_l	arm_add_l	arm_rot_l	elbow_flex_l	pro_sup_l
      2.23333330	     -4.32853725	      2.19360063	     -3.93021060	      1.80218046	      0.88546159	     -0.14844226	      1.17737474	     -6.12500428	      3.31142716	      0.00000000	      2.48559547	    -19.06686246	      0.00000000	      0.11078778	     -1.63899181	     -4.89048146	      0.04272544	      2.56741611	     -7.47519521	      0.00000000	     -6.24360976	     -0.20176583	     -1.44492420	     13.89648529	     -4.09588266	     36.80408330	     92.40047640	     93.22732344	     14.72084923	     -5.88469369	     33.92552313	     87.22607395	     90.45342836
      2.25000000	     -4.30178875	      2.20418273	     -4.07104941	      1.80221325	      0.88578909	     -0.14791099	      1.17666675	     -6.13507937	      3.18114001	      0.00000000	      2.57611188	    -19.17070182	      0.00000000	      0.05575813	     -1.63622968	     -4.97031969	      0.08700051	      2.59592290	     -7.54181732	      0.00000000	     -6.22568910	     -0.24658077	     -1.46713851	     13.87516723	     -4.03261659	     36.76816504	     92.37821121	     93.21485283	     14.74642168	     -5.91568134	     33.92189441	     87.21322018	     90.42880436
      2.26666670	     -4.30320616	      2.20376648	     -4.06936417	      1.80223350	      0.88587668	     -0.14780789	      1.17639088	     -6.13601731	      3.18066707	      0.00000000	      2.57660765	    -19.17126013	      0.00000000	      0.05495163	     -1.63640686	     -4.97143906	      0.08705531	      2.59633723	     -7.54269215	      0.00000000	     -6.22609387	     -0.24681147	     -1.46690092	     13.87512627	     -4.03199742	     36.76785225	     92.37790858	     93.21473065	     14.74630819	     -5.91586128	     33.92196824	     87.21305325	     90.42856583
      2.28333330	     -4.30648206	      2.20618999	     -4.01060140	      1.80238523	      0.88579428	     -0.14776092	      1.15716186	     -6.11048445	      3.05125505	      0.00000000	      2.65859898	    -19.28749877	      0.00000000	      0.03735015	     -1.65434133	     -5.14446152	      0.04012350	      2.66101136	     -7.68100898	      0.00000000	     -6.29116211	     -0.33153626	     -1.45622683	     13.82217598	     -3.91649325	     36.73881532	     92.32708986	     93.19713332	     14.70422781	     -5.92511571	     33.95572709	     87.18763440	     90.39355602
      2.30000000	     -4.30745070	      2.21001023	     -4.01342744	      1.80240339	      0.88554164	     -0.14788095	      1.15731112	     -6.10748745	      3.05016830	      0.00000000	      2.65898079	    -19.28836392	      0.00000000	      0.03452807	     -1.65411589	     -5.14456435	      0.04209885	      2.66083297	     -7.68136566	      0.00000000	     -6.29155042	     -0.33159043	     -1.45726127	     13.82141251	     -3.91603816	     36.73825859	     92.32648240	     93.19693403	     14.70448170	     -5.92479531	     33.95613827	     87.18760732	     90.39318698
      2.31666670	     -4.30311824	      2.20902999	     -4.11510557	      1.80242930	      0.88544743	     -0.14783733	      1.17745136	     -6.09676848	      2.99804820	      0.00000000	      2.67759002	    -19.33046817	      0.00000000	      0.00586348	     -1.64705975	     -5.15538626	      0.07104053	      2.66172167	     -7.70385595	      0.00000000	     -6.31576762	     -0.34529757	     -1.49352419	     13.78459180	     -3.90184690	     36.71678117	     92.30027769	     93.18904777	     14.70820777	     -5.92624914	     33.96966704	     87.18245839	     90.37859142
      2.33333330	     -4.30349664	      2.20893731	     -4.11424190	      1.80247560	      0.88534038	     -0.14784786	      1.17813606	     -6.09500713	      2.99768582	      0.00000000	      2.67777225	    -19.33092770	      0.00000000	      0.00507095	     -1.64580927	     -5.15593582	      0.07161971	      2.66176792	     -7.70441126	      0.00000000	     -6.31697888	     -0.34586667	     -1.49320589	     13.78421359	     -3.90155510	     36.71636659	     92.29968279	     93.18890297	     14.70816420	     -5.92725991	     33.96949904	     87.18207967	     90.37830735
      2.35000000	     -4.33749856	      2.19669131	     -4.09987233	      1.80268344	      0.88528901	     -0.14777804	      1.21518206	     -6.05239176	      2.94632013	      0.00000000	      2.70965122	    -19.39081079	      0.00000000	      0.05062409	     -1.67881650	     -5.20670357	      0.08531903	      2.66641377	     -7.76469700	      0.00000000	     -6.49029670	     -0.41969722	     -1.44208064	     13.70828927	     -3.89527863	     36.67248271	     92.21932676	     93.17385569	     14.69087460	     -6.10985123	     33.91968276	     87.11010874	     90.34719818
      2.36666670	     -4.29353876	      2.22120525	     -4.17843000	      1.80292050	      0.88541479	     -0.14779623	      1.19279578	     -6.07576988	      2.92398257	      0.00000000	      2.73714324	    -19.45015733	      0.00000000	      0.06433013	     -1.67412999	     -5.23670893	      0.26613014	      2.62811133	     -7.82435874	      0.00000000	     -6.55667466	     -0.43331696	     -1.41421278	     13.60822466	     -3.88019263	     36.58781036	     92.11292822	     93.14972140	     14.71869365	     -6.29045514	     33.83903320	     87.04568704	     90.29806725
      2.38333330	     -4.30939271	      2.23708709	     -4.08942594	      1.80303136	      0.88562930	     -0.14794196	      1.17017918	     -6.08476552	      2.95593622	      0.00000000	      2.73229691	    -19.44952395	      0.00000000	      0.11874836	     -1.69049079	     -5.26127321	      0.30477027	      2.61227251	     -7.85340795	      0.00000000	     -6.63020313	     -0.46014674	     -1.37064649	     13.59329205	     -3.86837931	     36.54819120	     92.05917313	     93.13895921	     14.69003503	     -6.34280012	     33.81305228	     87.00829860	     90.27670373
      2.40000000	     -4.31261155	      2.24274908	     -4.09238514	      1.80295312	      0.88560510	     -0.14803044	      1.16704646	     -6.08543791	      2.95579957	      0.00000000	      2.73224935	    -19.44977338	      0.00000000	      0.12006868	     -1.69487442	     -5.26089732	      0.30652376	      2.61145494	     -7.85341792	      0.00000000	     -6.63219609	     -0.46021749	     -1.37045100	     13.59242933	     -3.86875534	     36.54744297	     92.05783453	     93.13876329	     14.68942090	     -6.34366739	     33.81258673	     87.00741968	     90.27632713
      2.41666670	     -4.32809407	      2.29941072	     -4.16771734	      1.80265067	      0.88553825	     -0.14804590	      1.22435441	     -6.14068103	      2.96200773	      0.00000000	      2.72206064	    -19.46232087	      0.00000000	      0.29036347	     -1.68029647	     -5.23044917	      0.56769483	      2.49987614	     -7.83807709	      0.00000000	     -6.94127831	     -0.47804935	     -1.28459593	     13.49248305	     -3.92019492	     36.48531388	     91.88435516	     93.12029515	     14.57715897	     -6.47295106	     33.75896387	     86.88966049	     90.24072931
      2.43333330	     -4.30564682	      2.37026099	     -4.11663447	      1.80238328	      0.88563157	     -0.14824814	      1.20544337	     -6.22667323	      2.95923734	      0.00000000	      2.65190342	    -19.50355041	      0.00000000	      0.57775698	     -1.65201938	     -5.34724617	      1.09397892	      2.38060738	     -7.96301276	      0.00000000	     -7.10307075	     -0.57440624	     -1.19873417	     13.48728667	     -3.83095539	     36.29291586	     91.48674178	     93.06478316	     14.67255661	     -6.43098871	     33.60844843	     86.75711124	     90.13332063
      2.45000000	     -4.37197518	      2.37895173	     -4.09517902	      1.80236609	      0.88583078	     -0.14836326	      1.27005927	     -6.23754195	      2.93696075	      0.00000000	      2.63889055	    -19.52656420	      0.00000000	      0.65380445	     -1.65275698	     -5.35303195	      1.06066274	      2.41305614	     -8.00284579	      0.00000000	     -7.21387419	     -0.58300063	     -1.17766152	     13.49887824	     -3.80873620	     36.25467661	     91.37883698	     93.05116877	     14.66697418	     -6.42290286	     33.59399114	     86.70158134	     90.10751012
      2.46666670	     -4.59246057	      2.42726047	     -4.08495426	      1.80217282	      0.88580357	     -0.14834989	      1.52704455	     -6.28130844	      2.93177187	      0.00000000	      2.35844936	    -19.83083785	      0.00000000	      1.07098335	     -1.63541315	     -5.16773025	      1.35773518	      2.44664641	     -8.34972826	      0.00000000	     -6.80638241	     -0.60546533	     -1.19672442	     13.57030174	     -3.38852418	     35.84564336	     89.78123737	     92.78238575	     14.68498687	     -6.26359404	     33.48107379	     85.89595256	     89.56306227
